<mxfile host="app.diagrams.net" modified="2024-01-17T20:53:09.827Z" agent="Mozilla/5.0 (X11; Linux x86_64) AppleWebKit/537.36 (KHTML, like Gecko) Chrome/118.0.5993.714 YaBrowser/23.11.1.714 Yowser/2.5 Safari/537.36" version="22.1.21" etag="R_MunWSoXwBHgR-mfnjX" type="github">
  <diagram name="Страница — 1" id="bJoPLygFJOJP_rjStDM6">
    <mxGraphModel>
      <root>
        <mxCell id="0" />
        <mxCell id="1" parent="0" />
      </root>
    </mxGraphModel>
  </diagram>
</mxfile>
